HIERARCHY
ROOT Hips
{
	OFFSET 0.00000 0.00000 0.00000
	CHANNELS 6 Xposition Yposition Zposition Zrotation Yrotation Xrotation 
	JOINT LHipJoint
	{
		OFFSET 0 0 0
		CHANNELS 3 Zrotation Yrotation Xrotation
		JOINT LeftUpLeg
		{
			OFFSET 1.51378 -1.89840 0.47569
			CHANNELS 3 Zrotation Yrotation Xrotation
			JOINT LeftLeg
			{
				OFFSET 2.53380 -6.96157 0.00000
				CHANNELS 3 Zrotation Yrotation Xrotation
				JOINT LeftFoot
				{
					OFFSET 2.74874 -7.55212 0.00000
					CHANNELS 3 Zrotation Yrotation Xrotation
					JOINT LeftToeBase
					{
						OFFSET 0.18263 -0.50178 1.99677
						CHANNELS 3 Zrotation Yrotation Xrotation
						End Site
						{
							OFFSET 0.00000 -0.00000 1.03711
						}
					}
				}
			}
		}
	}
	JOINT RHipJoint
	{
		OFFSET 0 0 0
		CHANNELS 3 Zrotation Yrotation Xrotation
		JOINT RightUpLeg
		{
			OFFSET -1.43037 -1.89840 0.47569
			CHANNELS 3 Zrotation Yrotation Xrotation
			JOINT RightLeg
			{
				OFFSET -2.69849 -7.41406 0.00000
				CHANNELS 3 Zrotation Yrotation Xrotation
				JOINT RightFoot
				{
					OFFSET -2.69369 -7.40087 0.00000
					CHANNELS 3 Zrotation Yrotation Xrotation
					JOINT RightToeBase
					{
						OFFSET -0.28932 -0.79491 2.04975
						CHANNELS 3 Zrotation Yrotation Xrotation
						End Site
						{
							OFFSET 0.00009 0.00010 1.09536
						}
					}
				}
			}
		}
	}
	JOINT LowerBack
	{
		OFFSET 0 0 0
		CHANNELS 3 Zrotation Yrotation Xrotation
		JOINT Spine
		{
			OFFSET 0.01912 1.94784 -0.02419
			CHANNELS 3 Zrotation Yrotation Xrotation
			JOINT Spine1
			{
				OFFSET 0.07565 1.94258 0.01909
				CHANNELS 3 Zrotation Yrotation Xrotation
				JOINT Neck
				{
					OFFSET 0 0 0
					CHANNELS 3 Zrotation Yrotation Xrotation
					JOINT Neck1
					{
						OFFSET -0.07010 1.86195 0.18976
						CHANNELS 3 Zrotation Yrotation Xrotation
						JOINT Head
						{
							OFFSET 0.02284 1.86595 -0.31497
							CHANNELS 3 Zrotation Yrotation Xrotation
							End Site
							{
								OFFSET 0.01200 1.90122 -0.12838
							}
						}
					}
				}
				JOINT LeftShoulder
				{
					OFFSET 0 0 0
					CHANNELS 3 Zrotation Yrotation Xrotation
					JOINT LeftArm
					{
						OFFSET 3.39189 0.96331 -0.10437
						CHANNELS 3 Zrotation Yrotation Xrotation
						JOINT LeftForeArm
						{
							OFFSET 5.14845 -0.00000 0.00000
							CHANNELS 3 Zrotation Yrotation Xrotation
							JOINT LeftHand
							{
								OFFSET 3.43674 -0.00000 -0.00000
								CHANNELS 3 Zrotation Yrotation Xrotation
								JOINT LeftFingerBase
								{
									OFFSET 0 0 0
									CHANNELS 3 Zrotation Yrotation Xrotation
									JOINT LeftHandIndex1
									{
										OFFSET 0.58871 -0.00000 0.00000
										CHANNELS 3 Zrotation Yrotation Xrotation
										End Site
										{
											OFFSET 0.47463 -0.00000 0.00000
										}
									}
								}
								JOINT LThumb
								{
									OFFSET 0 0 0
									CHANNELS 3 Zrotation Yrotation Xrotation
									End Site
									{
										OFFSET 0.48188 -0.00000 0.48188
									}
								}
							}
						}
					}
				}
				JOINT RightShoulder
				{
					OFFSET 0 0 0
					CHANNELS 3 Zrotation Yrotation Xrotation
					JOINT RightArm
					{
						OFFSET -3.34934 1.18831 -0.19928
						CHANNELS 3 Zrotation Yrotation Xrotation
						JOINT RightForeArm
						{
							OFFSET -5.42185 -0.00000 0.00000
							CHANNELS 3 Zrotation Yrotation Xrotation
							JOINT RightHand
							{
								OFFSET -3.51317 -0.00000 -0.00000
								CHANNELS 3 Zrotation Yrotation Xrotation
								JOINT RightFingerBase
								{
									OFFSET 0 0 0
									CHANNELS 3 Zrotation Yrotation Xrotation
									JOINT RightHandIndex1
									{
										OFFSET -0.66319 -0.00000 0.00000
										CHANNELS 3 Zrotation Yrotation Xrotation
										End Site
										{
											OFFSET -0.53468 -0.00000 0.00000
										}
									}
								}
								JOINT RThumb
								{
									OFFSET 0 0 0
									CHANNELS 3 Zrotation Yrotation Xrotation
									End Site
									{
										OFFSET -0.54284 -0.00000 0.54284
									}
								}
							}
						}
					}
				}
			}
		}
	}
}
MOTION
Frames: 12
Frame Time: 0.0166666
1.7846 18.0853 -3.9668 0 0 0 0 0 0 -21 0 0 0 0 0 0 0 0 0 0 0 0 0 0 21 0 0 0 0 0 0 0 0 0 0 0 0 0 0 0 0 0 0 0 0 0 0 -16 0 0 21 0 0 11 0 0 0 -8 0 0 0 0 0 0 0 0 0 0 0 0 0 0 0 0 0 0 0 0 8 0 0 0 0 0 0 0 0 0 0 0 0 0 0 0 0 0
1.8128 18.0852 -3.9765 -11.8580 -70.2438 17.4565 0.0000 0.0000 0.0000 -15.9573 -7.4870 -7.6363 1.6175 8.0192 22.7725 1.1704 -5.0863 -19.3948 0.4029 -4.0751 -11.2879 0.0000 0.0000 0.0000 23.7179 3.5019 -13.5028 -2.9295 -10.5800 30.8761 -1.9259 -6.1819 -29.0290 -0.0060 0.5014 -1.3777 2.2990 2.4728 -1.9400 3.1408 3.1798 -0.1282 2.0193 1.5777 0.9022 -0.5927 8.6127 -14.2851 -8.8184 13.3935 14.8912 -1.3125 5.5205 7.5335 0.0000 0.0000 0.0000 -92.6284 -1.0314 9.7750 13.7959 -22.4422 -2.7497 -0.0000 -0.0000 0.6791 22.7314 20.3858 8.3030 -7.1250 0.0000 -0.0000 -5.8912 51.8309 -0.9938 0.0000 0.0000 0.0000 86.3397 -5.5210 11.9659 -18.3251 28.5715 -4.7037 0.0000 -0.0000 -0.1573 -26.0666 14.2634 -6.8722 7.1250 -0.0000 -0.0000 0.9575 -14.1797 0.6939
1.8286 18.0851 -3.9617 -11.0326 -70.2458 16.6843 0.0000 0.0000 0.0000 -16.3164 -7.5137 -7.7065 1.6225 8.0310 22.8083 1.1680 -5.3397 -19.3550 0.3542 -3.8235 -10.5806 0.0000 0.0000 0.0000 23.3415 3.3826 -13.6256 -2.9437 -10.6033 30.9533 -1.9267 -6.2145 -29.0528 -0.0136 0.7523 -2.0675 2.0449 2.5317 -2.0209 2.9835 3.2635 -0.0525 2.0079 1.6209 1.0185 -0.6509 8.6130 -14.3139 -8.7299 13.3753 14.7395 -1.2793 5.5255 7.4769 0.0000 0.0000 0.0000 -92.6465 -1.2977 9.6245 13.7275 -22.3438 -2.7237 -0.0000 -0.0000 1.0153 22.5874 20.1438 8.1528 -7.1250 0.0000 -0.0000 -5.9636 51.5514 -0.9651 0.0000 0.0000 0.0000 86.4051 -5.4285 11.9761 -18.4810 28.7686 -4.7785 0.0000 0.0000 0.0560 -26.5353 14.6120 -7.1799 7.1250 -0.0000 -0.0000 0.6689 -13.7344 0.4910
1.8420 18.0859 -3.9359 -9.5652 -70.2838 15.4029 0.0000 0.0000 0.0000 -17.0089 -7.6601 -7.4392 1.5401 7.8341 22.2112 1.1216 -5.2028 -18.9645 0.3300 -3.6922 -10.2122 0.0000 0.0000 0.0000 22.6489 3.0834 -14.0587 -3.0186 -10.7251 31.3583 -1.9602 -6.0300 -29.1680 -0.0213 0.9416 -2.5880 1.6716 2.5148 -2.2606 2.7422 3.2475 0.0074 1.9814 1.6141 1.2076 -0.8585 8.6406 -14.2181 -8.4888 13.3694 14.3715 -1.1838 5.5592 7.3064 -0.0000 -0.0000 0.0000 -92.5883 -1.3125 9.4273 13.8849 -22.5699 -2.7838 -0.0000 -0.0000 1.3708 22.2892 19.8414 7.9207 -7.1250 0.0000 -0.0000 -6.1721 51.1821 -0.9430 -0.0000 -0.0000 0.0000 86.4692 -5.2854 12.1044 -18.6715 29.0084 -4.8705 0.0000 0.0000 0.2558 -26.3707 14.4353 -7.0453 7.1250 -0.0000 -0.0000 0.7654 -13.9509 0.5583
1.8506 18.0850 -3.9082 -6.8717 -70.6469 12.6440 0.0000 0.0000 0.0000 -18.2802 -7.6405 -7.0000 1.5199 7.7848 22.0623 1.1070 -4.9169 -18.8587 0.3009 -3.5268 -9.7490 0.0000 0.0000 0.0000 21.4270 2.7682 -14.0197 -3.0675 -10.8036 31.6203 -2.0336 -5.4627 -29.3367 -0.0160 0.8170 -2.2454 0.8051 2.5680 -2.2138 2.3739 3.3522 0.1723 2.0925 1.6656 1.3202 -0.6977 8.7399 -14.2627 -8.4676 13.4594 14.2486 -1.1909 5.6194 7.2859 -0.0000 -0.0000 0.0000 -92.6680 -1.3482 8.7956 14.0920 -22.8660 -2.8637 -0.0000 -0.0000 2.0645 22.0110 20.0209 7.8797 -7.1250 0.0000 -0.0000 -6.5014 51.3224 -1.0161 -0.0000 -0.0000 0.0000 86.4560 -5.2944 12.8347 -19.0259 29.4509 -5.0436 0.0000 -0.0000 -0.2859 -26.4482 13.0527 -6.4102 7.1250 -0.0000 -0.0000 0.6030 -15.4630 0.4204
1.8740 18.0818 -3.8917 -6.1878 -70.3200 12.0641 0.0000 0.0000 0.0000 -18.5244 -7.8039 -7.1435 1.5134 7.7689 22.0143 1.0829 -5.2436 -18.6213 0.2497 -3.2155 -8.8793 0.0000 0.0000 0.0000 21.1341 2.5241 -14.3732 -3.1161 -10.8806 31.8783 -2.0543 -5.3753 -29.4235 -0.0115 0.6936 -1.9061 0.6137 2.5070 -2.2101 2.3147 3.2790 0.1429 2.1350 1.6288 1.2828 -0.8516 8.7370 -14.1434 -8.3997 13.4461 14.0254 -1.1578 5.6276 7.1764 -0.0000 0.0000 0.0000 -92.8271 -1.4273 8.8040 14.0722 -22.8378 -2.8561 -0.0000 -0.0000 2.0725 22.3045 19.9146 7.9544 -7.1250 0.0000 -0.0000 -6.1782 51.2617 -0.9561 -0.0000 0.0000 0.0000 86.3557 -5.3867 13.0270 -19.2561 29.7357 -5.1573 0.0000 -0.0000 -0.3390 -26.4549 13.2333 -6.4985 7.1250 -0.0000 -0.0000 0.6122 -15.2631 0.4294
1.8984 18.0776 -3.8699 -5.1916 -70.1883 11.0281 0.0000 0.0000 0.0000 -18.9398 -7.5310 -7.2937 1.5275 7.8035 22.1188 1.0752 -5.8094 -18.5244 0.2237 -3.0443 -8.4022 0.0000 0.0000 0.0000 20.6623 2.2787 -14.5017 -3.1567 -10.9445 32.0928 -2.0673 -5.2023 -29.4169 -0.0128 0.7294 -2.0045 0.4524 2.5438 -2.1239 2.0945 3.3384 0.2268 1.9993 1.6590 1.3225 -0.9844 8.6995 -14.1263 -8.1059 13.3579 13.9020 -1.0597 5.6147 7.0977 -0.0000 -0.0000 0.0000 -92.5579 -1.5696 9.5464 14.0889 -22.8616 -2.8626 -0.0000 -0.0000 1.4532 21.6221 20.4706 7.8922 -7.1250 0.0000 -0.0000 -7.0264 51.7245 -1.1683 -0.0000 -0.0000 0.0000 86.3697 -5.5423 13.5089 -19.5528 30.0998 -5.3053 0.0000 -0.0000 -1.1707 -26.7475 13.1475 -6.5396 7.1250 -0.0000 -0.0000 0.4050 -15.3216 0.2836
1.9244 18.0744 -3.8493 -5.5527 -69.8343 11.3209 0.0000 0.0000 0.0000 -18.7984 -7.3657 -7.5107 1.5439 7.8434 22.2395 1.0686 -6.2394 -18.4553 0.2623 -3.2946 -9.1000 0.0000 0.0000 0.0000 20.7569 1.9447 -14.6793 -3.1856 -10.9897 32.2450 -2.1010 -5.0328 -29.5454 -0.0056 0.4824 -1.3256 0.6993 2.4853 -2.0937 2.0624 3.2521 0.3483 1.8286 1.6169 1.4485 -0.9240 8.6825 -14.3724 -8.0839 13.3188 13.7920 -1.0575 5.6002 7.1049 0.0000 -0.0000 0.0000 -92.5133 -1.7840 9.6119 14.1306 -22.9211 -2.8788 -0.0000 -0.0000 1.3725 21.4721 20.2488 7.7524 -7.1250 0.0000 -0.0000 -7.1064 51.4674 -1.1368 0.0000 -0.0000 0.0000 86.4527 -5.2539 13.0318 -19.5351 30.0782 -5.2964 0.0000 -0.0000 -0.6692 -26.4431 13.1713 -6.4655 7.1250 -0.0000 -0.0000 0.6154 -15.3329 0.4308
1.9505 18.0731 -3.8283 -4.6576 -69.5269 10.4598 0.0000 0.0000 0.0000 -19.1956 -7.6739 -7.5168 1.5480 7.8531 22.2689 1.0626 -6.1781 -18.4031 0.2853 -3.4351 -9.4926 0.0000 0.0000 0.0000 20.3561 1.6449 -14.9106 -3.2200 -11.0429 32.4247 -2.0814 -5.1316 -29.4711 -0.0164 0.8277 -2.2749 0.4605 2.4263 -1.9715 1.9735 3.1851 0.3368 1.8622 1.5829 1.3619 -1.1000 8.6458 -14.2976 -8.0071 13.2683 13.6024 -1.0202 5.5867 7.0112 0.0000 0.0000 0.0000 -92.6066 -1.8140 9.6803 14.1816 -22.9937 -2.8987 -0.0000 -0.0000 1.4988 21.8140 20.0831 7.8258 -7.1250 0.0000 -0.0000 -6.7158 51.3537 -1.0551 0.0000 0.0000 0.0000 86.2798 -5.3108 13.1285 -19.5768 30.1291 -5.3173 0.0000 -0.0000 -0.8945 -26.3317 13.2940 -6.4927 7.1250 -0.0000 -0.0000 0.7012 -15.2114 0.4927
1.9734 18.0730 -3.8041 -3.7359 -69.3376 9.5446 0.0000 0.0000 0.0000 -19.6118 -7.4930 -7.5325 1.5307 7.8111 22.1419 1.0417 -6.7150 -18.2175 0.2040 -2.9083 -8.0236 0.0000 0.0000 0.0000 19.9042 1.4940 -15.0780 -3.2737 -11.1254 32.7040 -2.1033 -5.1100 -29.5992 -0.0159 0.8131 -2.2346 0.2488 2.3887 -1.8928 1.8137 3.1456 0.3444 1.8118 1.5632 1.3242 -1.0976 8.6270 -14.2604 -7.8970 13.2205 13.5861 -0.9937 5.5769 6.9892 -0.0000 -0.0000 0.0000 -92.5750 -1.8509 9.7839 14.2401 -23.0769 -2.9215 -0.0000 -0.0000 1.0407 21.4280 20.6899 7.8943 -7.1250 0.0000 -0.0000 -7.2898 51.9186 -1.2473 -0.0000 -0.0000 0.0000 86.2777 -5.4091 13.1814 -19.6663 30.2382 -5.3623 0.0000 -0.0000 -1.0713 -26.6801 12.6815 -6.2953 7.1250 -0.0000 -0.0000 0.4154 -15.8449 0.2862
1.9927 18.0671 -3.7870 -3.1118 -69.0902 8.9127 0.0000 0.0000 0.0000 -19.8477 -7.1849 -7.6279 1.5167 7.7772 22.0394 1.0287 -7.5334 -18.1282 0.1571 -2.5540 -7.0395 0.0000 0.0000 0.0000 19.6273 1.4343 -15.1843 -3.3228 -11.2000 32.9575 -2.0775 -5.5045 -29.6388 -0.0393 1.2790 -3.5168 -0.0047 2.2924 -1.9489 1.7339 3.0236 0.4527 1.8738 1.5000 1.4614 -0.9076 8.6381 -14.1615 -8.1425 13.1995 13.2357 -1.1114 5.5760 6.8888 0.0000 0.0000 0.0000 -92.6782 -1.9418 9.7156 14.3229 -23.1944 -2.9541 -0.0000 -0.0000 0.9459 22.1386 20.7591 8.2055 -7.1250 0.0000 -0.0000 -6.6003 52.1166 -1.1606 0.0000 0.0000 0.0000 86.1762 -5.2702 13.4399 -19.6579 30.2279 -5.3580 0.0000 -0.0000 -1.3316 -26.7940 12.2290 -6.1057 7.1250 -0.0000 -0.0000 0.3030 -16.3321 0.2056
2.0199 18.0704 -3.7600 -2.5657 -68.8225 8.3415 0.0000 0.0000 0.0000 -20.1200 -7.3470 -7.6125 1.5157 7.7746 22.0314 0.9934 -7.9769 -17.8468 0.0991 -2.0300 -5.5887 0.0000 0.0000 0.0000 19.3115 1.1894 -15.3027 -3.3507 -11.2422 33.1010 -2.0938 -5.4900 -29.7345 -0.0415 1.3151 -3.6164 -0.0334 2.2941 -1.8607 1.6282 3.0293 0.4952 1.7789 1.5032 1.4595 -1.1351 8.5695 -14.2162 -7.9191 13.1185 13.2573 -1.0147 5.5436 6.8707 0.0000 0.0000 0.0000 -92.5470 -2.0576 10.0812 14.2848 -23.1404 -2.9391 -0.0000 -0.0000 0.8990 21.2787 21.9966 8.2993 -7.1250 0.0000 -0.0000 -7.8833 53.2462 -1.6069 0.0000 0.0000 0.0000 86.0899 -5.2834 13.2813 -19.6006 30.1581 -5.3292 0.0000 -0.0000 -1.1626 -26.7204 12.3750 -6.1574 7.1250 -0.0000 -0.0000 0.3647 -16.1792 0.2487
